<svg version="1.1" id="Layer_1" xmlns="http://www.w3.org/2000/svg" xmlns:xlink="http://www.w3.org/1999/xlink" x="0px" y="0px"
	 width="100%" viewBox="0 0 1314 678" enable-background="new 0 0 1314 678" xml:space="preserve">
<path fill="#3061DB" opacity="1.000000" stroke="none" 
	d="
M872.000000,679.000000 
	C581.369751,679.000000 291.239441,679.000000 1.054584,679.000000 
	C1.054584,453.064758 1.054584,227.129471 1.054584,1.097097 
	C438.880310,1.097097 876.760681,1.097097 1314.820557,1.097097 
	C1314.820557,226.999878 1314.820557,452.999939 1314.820557,679.000000 
	C1167.462769,679.000000 1019.981384,679.000000 872.000000,679.000000 
M1059.500000,14.935142 
	C713.394104,14.935142 367.288177,14.935142 20.530224,14.935142 
	C20.530224,17.539700 20.530224,19.498756 20.530224,21.457811 
	C20.530182,233.286087 20.529793,445.114349 20.531677,656.942627 
	C20.531738,663.728882 20.542610,663.744141 27.363699,663.744202 
	C447.853668,663.746704 868.343628,663.746887 1288.833618,663.743896 
	C1295.975830,663.743835 1295.993408,663.724243 1295.993530,656.586609 
	C1295.996826,445.091675 1295.997192,233.596725 1295.994751,22.101784 
	C1295.994629,14.944735 1295.979248,14.936675 1288.994507,14.936494 
	C1212.829712,14.934521 1136.664795,14.935264 1059.500000,14.935142 
z"/>
<path fill="#E3AFBB" opacity="1.000000" stroke="none" 
	d="
M1060.000000,14.935205 
	C1136.664795,14.935264 1212.829712,14.934521 1288.994507,14.936494 
	C1295.979248,14.936675 1295.994629,14.944735 1295.994751,22.101784 
	C1295.997192,233.596725 1295.996826,445.091675 1295.993530,656.586609 
	C1295.993408,663.724243 1295.975830,663.743835 1288.833618,663.743896 
	C868.343628,663.746887 447.853668,663.746704 27.363699,663.744202 
	C20.542610,663.744141 20.531738,663.728882 20.531677,656.942627 
	C20.529793,445.114349 20.530182,233.286087 20.530224,21.457811 
	C20.530224,19.498756 20.530224,17.539700 20.530224,14.935142 
	C367.288177,14.935142 713.394104,14.935142 1060.000000,14.935205 
M38.286621,322.499573 
	C38.286873,427.989166 38.285839,533.478760 38.290234,638.968323 
	C38.290531,646.115234 38.309544,646.133789 45.437122,646.133850 
	C453.732117,646.137573 862.027161,646.138306 1270.322144,646.136475 
	C1277.694214,646.136475 1277.711914,646.120911 1277.711914,638.711548 
	C1277.714722,439.230316 1277.713989,239.749054 1277.710815,40.267807 
	C1277.710693,32.689774 1277.696411,32.684265 1270.063232,32.684261 
	C862.101562,32.684116 454.139832,32.684902 46.178135,32.686241 
	C38.296318,32.686268 38.286736,32.689896 38.286568,40.525894 
	C38.284584,134.183762 38.285660,227.841644 38.286621,322.499573 
z"/>
<path fill="#2E60DC" opacity="1.000000" stroke="none" 
	d="
M38.286278,321.999542 
	C38.285660,227.841644 38.284584,134.183762 38.286568,40.525894 
	C38.286736,32.689896 38.296318,32.686268 46.178135,32.686241 
	C454.139832,32.684902 862.101562,32.684116 1270.063232,32.684261 
	C1277.696411,32.684265 1277.710693,32.689774 1277.710815,40.267807 
	C1277.713989,239.749054 1277.714722,439.230316 1277.711914,638.711548 
	C1277.711914,646.120911 1277.694214,646.136475 1270.322144,646.136475 
	C862.027161,646.138306 453.732117,646.137573 45.437122,646.133850 
	C38.309544,646.133789 38.290531,646.115234 38.290234,638.968323 
	C38.285839,533.478760 38.286873,427.989166 38.286278,321.999542 
M1099.737305,251.268326 
	C1103.786377,242.364700 1107.835571,233.461075 1111.884766,224.557434 
	C1112.470825,224.714050 1113.056885,224.870651 1113.642944,225.027267 
	C1113.642944,226.941116 1113.642822,228.854950 1113.642944,230.768799 
	C1113.644897,259.923950 1113.721680,289.079468 1113.567261,318.233795 
	C1113.544312,322.569366 1114.802002,324.011566 1119.239258,323.929779 
	C1133.229004,323.672058 1147.229492,323.672577 1161.219238,323.931580 
	C1165.635010,324.013367 1166.927124,322.624084 1166.918701,318.261505 
	C1166.801636,256.952637 1166.806763,195.643433 1166.907471,134.334518 
	C1166.914062,130.305191 1165.863159,128.819931 1161.599487,128.881485 
	C1145.775757,129.109970 1129.944946,129.097549 1114.120850,128.882202 
	C1110.233398,128.829285 1108.209961,130.009903 1106.568726,133.619537 
	C1094.306885,160.589630 1081.823486,187.459106 1069.392700,214.352295 
	C1068.658203,215.941254 1067.777954,217.462738 1066.508301,219.889328 
	C1065.054565,217.092468 1063.996338,215.254715 1063.116943,213.335052 
	C1050.916748,186.702057 1038.707275,160.073120 1026.605225,133.395493 
	C1025.211914,130.324005 1023.564575,128.839218 1019.902954,128.886337 
	C1003.578796,129.096481 987.249512,129.063263 970.924194,128.906357 
	C967.255249,128.871109 965.977295,130.005707 965.982361,133.744781 
	C966.066528,195.386978 966.064819,257.029327 965.981201,318.671509 
	C965.976013,322.511780 967.145386,323.962006 971.130554,323.906830 
	C984.789124,323.717712 998.452026,323.837311 1012.113281,323.835693 
	C1019.493591,323.834808 1019.496460,323.831573 1019.496887,316.661407 
	C1019.498779,287.672882 1019.491821,258.684357 1019.515808,229.695847 
	C1019.517273,227.901367 1019.755920,226.107086 1019.884155,224.312714 
	C1021.932007,226.425949 1022.975159,228.496140 1023.931580,230.605667 
	C1032.728516,250.009109 1041.574463,269.390930 1050.233398,288.855865 
	C1051.660767,292.064575 1053.501953,293.428253 1057.036499,293.302612 
	C1063.359375,293.077850 1069.702637,293.066498 1076.024292,293.308411 
	C1079.596313,293.445129 1081.393066,292.001190 1082.785889,288.818390 
	C1088.190552,276.467865 1093.834961,264.222290 1099.737305,251.268326 
M581.179016,285.356842 
	C582.658142,291.804230 586.621643,294.115936 593.170166,293.346191 
	C597.771362,292.805328 602.515259,292.924713 607.144348,293.330872 
	C611.746033,293.734650 614.006531,291.810760 615.802429,287.753632 
	C624.627686,267.816162 633.698792,247.987442 642.702332,228.129013 
	C643.337524,226.728149 644.127380,225.397400 644.845337,224.034058 
	C645.221313,224.135864 645.597290,224.237671 645.973267,224.339493 
	C645.973267,226.095718 645.973206,227.851959 645.973206,229.608185 
	C645.973206,259.262665 646.045532,288.917511 645.890625,318.571198 
	C645.868835,322.741180 647.162048,323.983673 651.287537,323.919434 
	C665.444885,323.698975 679.610657,323.677826 693.767151,323.924408 
	C698.253296,324.002502 699.445312,322.375702 699.438232,318.130066 
	C699.336792,256.988708 699.319092,195.847015 699.447754,134.705750 
	C699.457703,129.991196 697.828064,128.812881 693.358521,128.880310 
	C677.701904,129.116470 662.037048,129.122696 646.380859,128.871475 
	C642.356079,128.806885 640.510071,130.309021 638.925781,133.791107 
	C626.794067,160.454773 614.491577,187.040787 602.208130,213.635208 
	C601.348083,215.497330 600.215210,217.233475 598.771240,219.809509 
	C597.282166,216.818466 596.201355,214.792191 595.246765,212.708054 
	C583.117371,186.225479 570.993225,159.740463 558.911194,133.236237 
	C557.747070,130.682434 556.624451,128.851959 553.172241,128.891953 
	C536.514709,129.084930 519.852966,129.057632 503.194366,128.913361 
	C499.644714,128.882629 498.629150,130.195053 498.632751,133.577942 
	C498.698181,195.385803 498.700775,257.193787 498.622559,319.001617 
	C498.617920,322.668335 499.813599,323.945374 503.531586,323.900574 
	C517.523804,323.731995 531.525024,323.603424 545.510437,323.955627 
	C550.638306,324.084778 552.004395,322.492584 551.968506,317.487854 
	C551.759399,288.334656 551.863098,259.179199 551.880371,230.024521 
	C551.881470,228.186844 552.044922,226.349243 552.132874,224.511612 
	C552.587708,224.455154 553.042480,224.398712 553.497314,224.342255 
	C562.613525,244.455826 571.729736,264.569397 581.179016,285.356842 
M201.932907,230.500000 
	C201.932907,198.343979 201.874374,166.187729 202.009277,134.032272 
	C202.025574,130.147873 200.960419,128.828430 196.959915,128.886887 
	C182.467758,129.098663 167.969528,129.067291 153.476089,128.904663 
	C149.707443,128.862381 148.211975,129.835876 148.219452,133.922333 
	C148.332047,195.568649 148.317657,257.215240 148.250198,318.861664 
	C148.246307,322.421600 149.279022,323.906097 153.082123,323.897919 
	C197.234161,323.803070 241.386551,323.798035 285.538544,323.904175 
	C289.356354,323.913361 290.391937,322.499237 290.343414,318.924805 
	C290.189545,307.597321 290.291016,296.266327 290.290253,284.936707 
	C290.289734,277.248322 290.287079,277.239380 282.816559,277.238068 
	C257.824738,277.233612 232.832260,277.146423 207.841629,277.319611 
	C203.400681,277.350372 201.716644,276.247498 201.827698,271.484406 
	C202.138321,258.162689 201.933960,244.828979 201.932907,230.500000 
M843.582092,450.268494 
	C843.582092,435.940216 843.582092,421.611969 843.582092,407.283691 
	C844.104248,407.175323 844.626404,407.066956 845.148560,406.958588 
	C846.412720,408.421906 847.718994,409.851196 848.934570,411.353851 
	C860.348206,425.462982 871.718933,439.606934 883.189270,453.669769 
	C884.389404,455.141235 886.103088,457.138489 887.660034,457.214142 
	C895.246765,457.582703 902.861267,457.380829 910.270142,457.380829 
	C910.633484,456.164734 910.898315,455.691315 910.898987,455.217468 
	C910.947083,420.410187 910.957336,385.602875 911.031128,350.795654 
	C911.037842,347.620087 909.403931,346.859192 906.638367,346.885712 
	C899.477478,346.954407 892.311768,347.037811 885.155273,346.844360 
	C881.300049,346.740143 879.888733,348.063507 879.944641,352.052948 
	C880.142822,366.206879 880.030457,380.365295 880.007690,394.522003 
	C880.005005,396.186035 879.828430,397.849762 879.666809,400.651520 
	C877.840332,398.642578 876.903381,397.727112 876.097473,396.708008 
	C866.699585,384.823975 856.529114,373.450409 848.176331,360.870605 
	C840.840332,349.822113 832.249939,344.735931 818.934326,346.662842 
	C814.184753,347.350189 812.388184,348.061432 812.422913,353.216370 
	C812.644592,386.191711 812.530090,419.169250 812.546143,452.146088 
	C812.546936,453.753540 812.735474,455.360931 812.867371,457.457275 
	C821.226074,457.457275 829.198486,457.179565 837.139587,457.558838 
	C842.103943,457.795990 844.443604,456.373871 843.582092,450.268494 
M637.597534,389.961090 
	C640.328247,369.581360 625.978455,349.586792 605.676514,347.773529 
	C589.316711,346.312317 572.750488,347.278992 556.286682,346.796936 
	C551.098267,346.645020 549.881958,348.462189 549.912292,353.398743 
	C550.113464,386.200134 550.016418,419.003357 550.016357,451.805969 
	C550.016357,453.447998 550.016357,455.090057 550.016357,457.457123 
	C558.743042,457.457123 567.031555,457.257996 575.303772,457.539276 
	C579.581665,457.684723 581.272461,456.464996 581.091492,451.951630 
	C580.778198,444.138489 580.904419,436.300110 581.120911,428.479889 
	C581.162720,426.968933 582.085999,424.702911 583.252563,424.145630 
	C587.083557,422.315460 591.571167,424.120422 593.750061,427.886017 
	C598.667053,436.383728 603.664917,444.838989 608.359253,453.458893 
	C610.022949,456.513916 612.052734,457.614624 615.476074,457.523499 
	C623.629272,457.306427 631.792358,457.477264 639.951233,457.439667 
	C641.529480,457.432404 643.106689,457.189758 645.391724,456.995575 
	C644.127991,454.529022 643.303040,452.747070 642.330627,451.049530 
	C636.623596,441.086578 630.975281,431.087830 625.098022,421.225769 
	C623.240051,418.108124 623.409424,416.047882 626.205200,413.529572 
	C632.889343,407.508698 636.554626,399.815277 637.597534,389.961090 
M401.987701,421.482941 
	C403.819550,426.284271 405.158478,431.349579 407.564972,435.843170 
	C421.084076,461.087280 455.342865,462.457336 474.528198,452.839081 
	C490.503876,444.829895 497.962616,430.642151 498.899170,413.605286 
	C500.031738,393.002869 499.544037,372.313507 499.893219,351.664062 
	C499.957214,347.880005 498.405670,346.742462 494.831329,346.838379 
	C488.004913,347.021515 481.162354,347.081848 474.341492,346.812775 
	C470.266846,346.652039 468.810364,347.936798 468.863342,352.155396 
	C469.066254,368.314880 469.177582,384.483643 468.819092,400.637787 
	C468.687775,406.553223 467.836212,412.647583 466.100098,418.286865 
	C463.495239,426.747986 457.004730,430.826141 448.781799,430.550598 
	C441.573914,430.309052 435.214874,425.408234 433.202820,417.280090 
	C431.778931,411.527954 431.178589,405.458710 431.072266,399.515594 
	C430.789215,383.691833 430.880005,367.858765 431.034973,352.031525 
	C431.073303,348.117859 429.728729,346.706848 425.819214,346.831879 
	C418.828369,347.055450 411.822021,347.020996 404.828552,346.843079 
	C401.136902,346.749115 399.900513,348.164001 399.933044,351.830872 
	C400.074860,367.825012 399.812622,383.824127 400.073639,399.815277 
	C400.187256,406.775116 401.207642,413.720215 401.987701,421.482941 
M1167.489014,430.423462 
	C1160.328857,430.423218 1153.166870,430.526581 1146.008911,430.400238 
	C1132.989380,430.170349 1134.845947,432.763916 1134.531494,418.625183 
	C1134.446411,414.799835 1135.968628,413.809875 1139.537109,413.877502 
	C1149.191406,414.060608 1158.857178,413.748474 1168.506958,414.024933 
	C1172.736816,414.146118 1174.629395,413.139374 1174.266968,408.531769 
	C1173.889648,403.732513 1173.971802,398.868469 1174.248291,394.055420 
	C1174.480103,390.020233 1173.213989,388.426270 1168.954102,388.567566 
	C1160.471313,388.848969 1151.972046,388.698364 1143.480347,388.635162 
	C1133.599854,388.561646 1134.812134,389.851257 1134.518799,379.375732 
	C1134.403809,375.262878 1135.818237,373.818207 1139.962036,373.889252 
	C1151.781006,374.091919 1163.608276,373.816925 1175.427002,374.026215 
	C1179.618286,374.100433 1181.560425,373.039307 1181.256104,368.450012 
	C1180.904297,363.144806 1180.927734,357.783813 1181.246460,352.474548 
	C1181.513916,348.015350 1179.797729,346.778870 1175.485718,346.813660 
	C1153.507202,346.991028 1131.525024,347.030396 1109.547729,346.793854 
	C1104.601929,346.740601 1103.419434,348.462433 1103.443359,353.130249 
	C1103.612793,386.099274 1103.528076,419.069519 1103.543945,452.039398 
	C1103.544800,453.655273 1103.727661,455.271088 1103.860474,457.461487 
	C1106.146484,457.461487 1108.098389,457.461578 1110.050171,457.461456 
	C1129.865356,457.460297 1149.680664,457.457977 1169.495850,457.458405 
	C1182.644775,457.458679 1182.644775,457.460419 1182.643921,444.407928 
	C1182.643066,430.417175 1182.643066,430.417175 1167.489014,430.423462 
M761.139160,373.948242 
	C764.560852,374.265106 765.917603,372.769318 765.795044,369.294342 
	C765.601440,363.805267 765.484253,358.287994 765.826355,352.813385 
	C766.112366,348.236542 764.549438,346.753693 759.918640,346.797272 
	C738.103271,347.002502 716.283752,347.018524 694.468750,346.794800 
	C689.548523,346.744324 687.862366,348.025574 687.898499,353.213501 
	C688.127014,386.021057 688.011841,418.830963 688.027283,451.640106 
	C688.028137,453.404846 688.184509,455.169525 688.269653,456.959229 
	C689.377747,457.167450 690.019470,457.392822 690.661438,457.393585 
	C714.809937,457.423035 738.958496,457.400604 763.106750,457.481415 
	C766.239258,457.491882 767.130615,456.077087 767.083008,453.219055 
	C766.983093,447.225281 766.879456,441.220581 767.136841,435.235840 
	C767.299133,431.463501 765.868103,430.309143 762.222412,430.366608 
	C751.566284,430.534668 740.904358,430.532074 730.247375,430.391327 
	C717.562866,430.223846 719.269958,432.701508 718.946533,418.927887 
	C718.852234,414.914795 720.286865,413.776428 724.158447,413.863892 
	C734.145935,414.089417 744.144287,414.041718 754.132263,413.826935 
	C755.654053,413.794220 758.407593,412.349670 758.449768,411.456757 
	C758.800842,404.036407 758.648865,396.592194 758.648865,388.647278 
	C748.026245,388.647278 738.066284,388.717438 728.107727,388.627502 
	C718.186401,388.537933 719.253540,389.969849 718.934326,379.538391 
	C718.797668,375.072723 720.447754,373.798065 724.738892,373.881073 
	C736.559021,374.109741 748.386597,373.956848 761.139160,373.948242 
M351.758331,437.673828 
	C351.404480,436.740082 351.026642,435.814667 350.700226,434.871460 
	C341.126984,407.211761 331.495728,379.571808 322.064056,351.863892 
	C320.778839,348.088257 318.928436,346.584656 314.894745,346.807281 
	C308.919373,347.137146 302.903229,347.093445 296.921997,346.822052 
	C293.066986,346.647186 291.423157,348.202911 290.194519,351.779266 
	C278.631958,385.436218 266.871948,419.025360 255.202698,452.645752 
	C254.745178,453.963959 254.627380,455.400055 254.230453,457.385681 
	C264.364990,457.385681 273.821808,457.488037 283.269440,457.240021 
	C284.305176,457.212799 285.750183,455.337097 286.212524,454.036865 
	C287.882446,449.340607 288.918457,444.400787 290.829559,439.818085 
	C291.515717,438.172760 293.944214,436.316620 295.678131,436.211212 
	C302.478882,435.797638 309.323334,436.174133 316.144135,435.986664 
	C319.190704,435.902893 320.732330,437.100830 321.509918,439.922882 
	C322.702301,444.250549 324.176941,448.501801 325.319672,452.841339 
	C326.197723,456.175842 327.781647,457.732422 331.565826,457.554565 
	C338.709045,457.218964 345.879395,457.482819 353.038086,457.437531 
	C354.606293,457.427612 356.172913,457.166473 358.318115,456.967407 
	C356.042084,450.327118 354.003784,444.380432 351.758331,437.673828 
M958.180298,397.748871 
	C957.630249,407.239960 959.222778,416.380310 963.325439,424.935455 
	C976.503296,452.414337 1002.521484,464.150085 1031.788818,455.664612 
	C1042.898193,452.443665 1052.599487,446.883789 1058.947510,436.618164 
	C1060.817139,433.594757 1060.714844,431.697723 1057.347168,429.850677 
	C1051.368164,426.571503 1045.515625,423.040985 1039.770508,419.364929 
	C1036.851807,417.497253 1035.211670,417.967804 1033.330933,420.841248 
	C1027.980469,429.016266 1017.208069,432.655884 1007.850891,429.769135 
	C994.901367,425.774109 987.005554,410.996033 990.008423,396.324066 
	C992.068359,386.259155 996.613403,377.801300 1007.238281,375.096497 
	C1018.521545,372.224091 1028.318970,374.895081 1035.106079,385.312927 
	C1035.583862,386.046295 1038.173340,386.314606 1039.063965,385.721924 
	C1045.297363,381.574188 1051.304321,377.088409 1057.467407,372.831940 
	C1059.591797,371.364716 1060.016357,369.755463 1058.325562,367.908966 
	C1054.531372,363.765259 1051.160278,358.947510 1046.645020,355.796936 
	C1016.906860,335.046143 963.457886,348.031372 958.180298,397.748871 
M147.675034,346.889771 
	C140.548447,346.957886 140.535995,346.957886 140.534821,353.996552 
	C140.529373,386.457733 140.526825,418.918915 140.542496,451.380096 
	C140.543427,453.298645 140.712662,455.217133 140.817505,457.429810 
	C166.888474,457.429810 192.342194,457.415161 217.795853,457.451721 
	C220.428970,457.455505 221.267410,456.189362 221.245453,453.757385 
	C221.189835,447.598694 221.062119,441.431854 221.313339,435.282562 
	C221.464005,431.594971 220.224121,430.310730 216.491501,430.361298 
	C203.842331,430.532806 191.189346,430.427948 178.537811,430.418243 
	C171.624313,430.412933 171.597137,430.403473 171.593170,423.644867 
	C171.579300,400.006470 171.513504,376.367615 171.653061,352.730042 
	C171.677460,348.598389 170.724106,346.557068 166.110947,346.815338 
	C160.302872,347.140533 154.462631,346.890961 147.675034,346.889771 
M178.212570,505.590515 
	C177.119171,507.775146 176.025757,509.959778 174.335388,513.337158 
	C171.362900,507.025726 168.856033,501.844696 166.469406,496.608856 
	C159.217484,480.699585 159.235580,480.691437 141.818878,481.345612 
	C141.485870,481.358124 141.017960,481.219940 140.840958,481.389740 
	C139.632141,482.549255 137.478134,483.762726 137.466385,484.976562 
	C137.256607,506.639282 137.329346,528.304626 137.278076,549.969177 
	C137.272034,552.529053 138.271210,553.555908 140.833847,553.487000 
	C144.997025,553.375061 149.173233,553.307129 153.329391,553.513611 
	C156.677078,553.679993 157.687943,552.222900 157.635025,549.089111 
	C157.514023,541.925232 157.581512,534.757507 157.637741,527.591919 
	C157.651108,525.890808 157.921478,524.191650 158.073639,522.491638 
	C158.543411,522.396362 159.013199,522.301086 159.482971,522.205811 
	C162.030533,527.672668 164.327072,533.280090 167.266266,538.527588 
	C168.252060,540.287537 170.726120,541.801697 172.780136,542.258545 
	C177.743088,543.362610 181.179245,541.626404 182.945297,536.235107 
	C184.600983,531.180786 187.335800,526.479980 189.595749,521.623596 
	C190.150040,521.749512 190.704330,521.875488 191.258621,522.001404 
	C191.258621,527.387695 191.258911,532.773926 191.258575,538.160156 
	C191.257568,554.936646 191.264618,555.007446 208.009537,553.315552 
	C209.288696,553.186340 211.376205,551.072449 211.387756,549.864807 
	C211.594925,528.202148 211.596100,506.536469 211.387054,484.873932 
	C211.375641,483.689972 209.222229,481.632782 207.927551,481.516022 
	C203.298401,481.098633 198.599152,481.531311 193.946915,481.273041 
	C190.605179,481.087585 188.772659,482.342346 187.467697,485.381348 
	C184.644028,491.957153 181.523560,498.405518 178.212570,505.590515 
M776.677673,481.699036 
	C773.056885,488.931061 769.422546,496.156403 765.821594,503.398285 
	C764.311523,506.435242 762.872070,509.507324 760.852661,513.701233 
	C756.133179,503.428558 752.121094,494.499542 747.894470,485.673248 
	C747.116638,484.048920 745.541016,481.715210 744.211670,481.630798 
	C737.631042,481.213196 731.009583,481.440582 724.196228,481.440582 
	C724.196228,505.736694 724.196228,529.288452 724.196228,553.434509 
	C730.002014,553.434509 735.480347,553.657288 740.912109,553.253357 
	C742.047119,553.169006 743.846680,550.810791 743.911072,549.433716 
	C744.229309,542.621033 744.035889,535.785767 744.094116,528.959045 
	C744.113037,526.734863 744.347229,524.512634 744.482971,522.289490 
	C744.953613,522.179932 745.424255,522.070312 745.894958,521.960754 
	C748.287354,527.139893 750.933777,532.220764 752.988464,537.530579 
	C754.521667,541.492493 757.016418,542.475586 761.008301,542.511230 
	C765.110596,542.547791 767.564636,541.294861 768.899414,537.359192 
	C769.910461,534.378357 771.368958,531.542725 772.721497,528.686523 
	C773.867371,526.266785 775.146667,523.910217 776.366882,521.525757 
	C777.616333,523.438721 777.796326,525.008423 777.803040,526.578918 
	C777.835205,534.072083 777.923340,541.567444 777.772766,549.057678 
	C777.710205,552.169983 778.578674,553.683105 781.968079,553.505432 
	C785.953552,553.296570 789.963013,553.336914 793.953186,553.494507 
	C796.983765,553.614197 798.065979,552.366333 798.057434,549.393555 
	C797.996216,528.079651 797.999268,506.765411 798.068848,485.451538 
	C798.078613,482.462616 796.939819,481.247192 793.946838,481.328766 
	C788.456482,481.478333 782.960938,481.435547 776.677673,481.699036 
M875.588623,244.501251 
	C875.585754,239.503708 875.445435,234.501129 875.628479,229.510391 
	C875.750183,226.192749 874.798096,224.780624 871.160828,224.798965 
	C845.507507,224.928421 819.853027,224.909470 794.199341,224.820068 
	C790.964172,224.808792 789.826050,225.898972 789.860413,229.152725 
	C789.994080,241.811752 790.002686,254.473923 789.861633,267.132751 
	C789.823853,270.527435 791.246277,271.360809 794.340088,271.351807 
	C819.993835,271.277100 845.648193,271.266388 871.301819,271.365417 
	C874.598328,271.378113 875.682983,270.172485 875.620361,266.989319 
	C875.479431,259.829041 875.583923,252.663971 875.588623,244.501251 
M1067.060547,482.244019 
	C1056.432617,481.947144 1045.799072,481.774536 1035.179565,481.290710 
	C1031.071533,481.103546 1029.724365,482.457825 1029.761719,486.640320 
	C1029.946289,507.268616 1029.838989,527.899414 1029.859863,548.529358 
	C1029.861328,549.976807 1030.067139,551.423950 1030.219849,553.419617 
	C1039.823608,553.419617 1049.111694,553.642395 1058.385376,553.374695 
	C1079.752563,552.757874 1092.219849,540.687683 1093.831299,519.387024 
	C1095.210693,501.152466 1085.130737,486.842041 1067.060547,482.244019 
M375.966156,542.595825 
	C377.202820,544.763489 378.308319,547.021423 379.718719,549.069458 
	C380.799072,550.638184 382.194366,553.085999 383.570465,553.170349 
	C390.454102,553.592163 397.377563,553.363403 405.522278,553.363403 
	C400.856812,545.222168 396.949768,538.135559 392.758759,531.221069 
	C391.034576,528.376404 391.043732,526.564575 393.486053,523.912720 
	C400.843536,515.924072 402.243042,506.400421 398.115265,496.543732 
	C393.938171,486.569214 386.076782,481.355255 375.047516,481.360962 
	C366.057098,481.365631 357.061157,481.537170 348.078735,481.266296 
	C343.844177,481.138580 342.734436,482.696594 342.767792,486.746246 
	C342.936462,507.223053 342.836334,527.702026 342.858307,548.180237 
	C342.860016,549.772644 343.075653,551.364807 343.228058,553.453430 
	C348.812683,553.453430 353.947540,553.341125 359.074371,553.495178 
	C362.195618,553.588928 363.158600,552.166809 363.088654,549.287109 
	C362.983612,544.961243 362.847351,540.611145 363.207611,536.311829 
	C363.343353,534.692566 364.765289,531.942932 365.708801,531.896362 
	C367.476227,531.809082 369.826355,532.881226 371.020905,534.261353 
	C372.945801,536.485535 374.130310,539.350403 375.966156,542.595825 
M486.597107,520.025513 
	C496.868988,502.331543 484.214172,479.980469 463.533722,481.263153 
	C455.075500,481.787750 446.551239,481.542725 438.069397,481.267334 
	C433.822388,481.129486 432.734650,482.714417 432.767731,486.753601 
	C432.935333,507.230011 432.835846,527.708496 432.858276,548.186279 
	C432.860016,549.777832 433.079041,551.369141 433.233856,553.456787 
	C438.819794,553.456787 443.954865,553.344116 449.081940,553.498657 
	C452.211029,553.592896 453.162720,552.157104 453.083618,549.283325 
	C452.973724,545.290894 452.792664,541.265015 453.192444,537.309082 
	C453.390259,535.351379 454.819122,533.518066 455.691010,531.628479 
	C457.670502,532.761047 460.339539,533.421997 461.498260,535.116028 
	C464.776062,539.908020 467.378296,545.157349 470.378876,550.147095 
	C471.104675,551.354126 472.307892,553.116638 473.347565,553.156372 
	C480.353119,553.423523 487.373749,553.295532 495.487152,553.295532 
	C491.750458,546.773315 489.031036,541.239990 485.578217,536.210144 
	C481.749634,530.632996 479.624390,525.592468 486.597107,520.025513 
M987.113525,489.387573 
	C980.771912,484.065948 973.481018,481.260864 965.187256,481.086517 
	C950.031494,480.767914 938.230286,486.848938 931.179077,500.341583 
	C923.964417,514.147217 925.398865,527.791077 934.825256,540.157043 
	C944.185913,552.436584 957.240601,556.125732 971.760620,552.972839 
	C986.094849,549.860291 995.483276,540.461548 998.931274,526.085388 
	C1002.316467,511.970612 998.089966,499.853912 987.113525,489.387573 
M239.871338,515.650085 
	C239.890396,538.800354 256.212402,554.903748 278.526825,553.787964 
	C293.301178,553.049194 305.803497,543.908752 310.804504,530.189636 
	C315.807922,516.463867 312.133087,500.474670 301.521881,490.701569 
	C290.203796,480.277405 276.844727,478.351196 262.954071,483.572021 
	C248.975372,488.825928 241.455826,499.793732 239.871338,515.650085 
M873.451965,481.850128 
	C870.968384,481.593445 868.490540,481.220917 866.000366,481.099030 
	C850.547424,480.342743 836.520142,489.135590 830.640198,503.200409 
	C824.683899,517.447815 828.574097,534.627319 840.063538,544.815369 
	C851.579285,555.026733 868.558899,557.058655 881.942810,549.512085 
	C895.819214,541.687805 902.380493,529.473206 900.698975,513.768372 
	C898.979004,497.704468 889.883606,486.961121 873.451965,481.850128 
M603.428528,554.353760 
	C605.911133,554.078430 608.393860,553.804871 610.876221,553.527466 
	C626.418579,551.790833 635.190002,537.192383 629.429565,522.664734 
	C627.003967,516.547607 621.785828,513.594971 616.169434,511.315399 
	C610.781189,509.128510 605.147156,507.542358 599.784119,505.302063 
	C598.486877,504.760193 597.831543,502.681671 596.881042,501.309814 
	C598.282715,500.627014 599.698120,499.353516 601.083191,499.385773 
	C603.861816,499.450500 606.681824,500.018555 609.379089,500.762054 
	C613.270935,501.834747 618.126953,505.298279 620.640625,504.000793 
	C623.828003,502.355621 625.087097,496.965179 627.161255,493.180786 
	C627.560181,492.452942 628.255798,491.630981 628.159363,490.944397 
	C627.985596,489.706604 627.652527,487.867920 626.803711,487.442688 
	C616.162415,482.111542 605.040100,478.905701 593.075928,481.881378 
	C582.275879,484.567535 575.827271,492.532593 575.242188,503.228577 
	C574.641724,514.207581 579.106506,520.478027 590.717773,524.767029 
	C593.993347,525.976990 597.381531,526.879211 600.674438,528.045776 
	C602.701660,528.763977 604.748047,529.545044 606.580750,530.640991 
	C607.380310,531.119080 608.205872,532.571838 608.035461,533.372620 
	C607.859131,534.202026 606.489014,535.362732 605.644043,535.360229 
	C602.517334,535.350952 599.224609,535.452942 596.302429,534.533569 
	C590.981567,532.859619 585.880859,530.485657 580.233826,528.221558 
	C578.000244,532.788086 576.036926,537.372375 573.569702,541.667175 
	C571.565796,545.155701 572.675598,547.148682 576.036865,548.008728 
	C584.844727,550.262451 593.719727,552.254150 603.428528,554.353760 
M1174.339111,505.926941 
	C1178.356323,498.158478 1182.373413,490.390015 1187.056641,481.333649 
	C1181.023926,481.333649 1176.252075,481.665436 1171.547485,481.245331 
	C1166.285400,480.775452 1163.446045,482.540497 1161.655518,487.717804 
	C1159.141357,494.987122 1155.683472,501.930084 1152.057129,510.339722 
	C1150.674927,507.585236 1149.890381,506.220428 1149.284668,504.780457 
	C1146.510864,498.186218 1143.841187,491.547516 1140.998291,484.983582 
	C1140.442993,483.701477 1139.324829,481.730682 1138.397705,481.691406 
	C1131.703613,481.407745 1124.991699,481.539307 1117.266968,481.539307 
	C1122.659302,492.219147 1126.963379,501.982910 1132.352295,511.105804 
	C1139.236816,522.760498 1143.473755,534.782532 1141.641357,548.473328 
	C1141.532593,549.286499 1141.395752,550.312317 1141.777100,550.924988 
	C1142.380981,551.895325 1143.386841,553.275085 1144.265991,553.307495 
	C1150.027832,553.519958 1155.801147,553.416931 1161.581665,553.416931 
	C1161.787964,551.833069 1162.088745,550.989502 1161.971436,550.208618 
	C1159.661743,534.838074 1164.942261,521.482483 1172.865112,508.812378 
	C1173.304932,508.109070 1173.642456,507.341766 1174.339111,505.926941 
M405.044617,323.816010 
	C406.032074,322.242584 407.850098,320.683075 407.876648,319.093628 
	C408.104828,305.440277 407.935486,291.780853 408.060547,278.124847 
	C408.093201,274.561768 407.013580,273.056549 403.205170,273.126068 
	C392.382965,273.323669 381.553070,273.310059 370.730103,273.136963 
	C367.072449,273.078522 365.732666,274.288666 365.773895,278.009003 
	C365.925323,291.664429 365.914612,305.323486 365.768433,318.979095 
	C365.729553,322.611145 366.894135,323.980164 370.647186,323.915588 
	C381.802795,323.723541 392.963776,323.843750 405.044617,323.816010 
M539.062439,481.353302 
	C535.401306,481.349548 531.721802,481.574646 528.083862,481.282166 
	C523.856995,480.942322 522.715881,482.666901 522.760193,486.730011 
	C522.947205,503.868774 522.841003,521.010742 522.838745,538.151550 
	C522.836670,554.412842 522.831177,554.339600 539.021118,553.525085 
	C542.049255,553.372681 543.100464,552.280701 543.092346,549.348206 
	C543.033325,528.047241 543.118286,506.745575 542.929749,485.446106 
	C542.917664,484.083374 541.000977,482.737488 539.062439,481.353302 
M661.269165,516.382874 
	C660.479004,522.043213 659.688782,527.703552 658.930237,533.137634 
	C660.652893,533.731445 661.111755,534.023560 661.573792,534.028687 
	C667.571167,534.095581 673.572388,534.265747 679.566162,534.129395 
	C694.042908,533.799805 691.709534,537.201843 691.976990,520.837097 
	C692.033508,517.381104 690.517822,516.126709 687.141479,516.184326 
	C678.811584,516.326599 670.477966,516.257996 661.269165,516.382874 
z"/>
<path fill="#E8B1BA" opacity="1.000000" stroke="none" 
	d="
M1099.563721,251.602997 
	C1093.834961,264.222290 1088.190552,276.467865 1082.785889,288.818390 
	C1081.393066,292.001190 1079.596313,293.445129 1076.024292,293.308411 
	C1069.702637,293.066498 1063.359375,293.077850 1057.036499,293.302612 
	C1053.501953,293.428253 1051.660767,292.064575 1050.233398,288.855865 
	C1041.574463,269.390930 1032.728516,250.009109 1023.931580,230.605667 
	C1022.975159,228.496140 1021.932007,226.425949 1019.884155,224.312714 
	C1019.755920,226.107086 1019.517273,227.901367 1019.515808,229.695847 
	C1019.491821,258.684357 1019.498779,287.672882 1019.496887,316.661407 
	C1019.496460,323.831573 1019.493591,323.834808 1012.113281,323.835693 
	C998.452026,323.837311 984.789124,323.717712 971.130554,323.906830 
	C967.145386,323.962006 965.976013,322.511780 965.981201,318.671509 
	C966.064819,257.029327 966.066528,195.386978 965.982361,133.744781 
	C965.977295,130.005707 967.255249,128.871109 970.924194,128.906357 
	C987.249512,129.063263 1003.578796,129.096481 1019.902954,128.886337 
	C1023.564575,128.839218 1025.211914,130.324005 1026.605225,133.395493 
	C1038.707275,160.073120 1050.916748,186.702057 1063.116943,213.335052 
	C1063.996338,215.254715 1065.054565,217.092468 1066.508301,219.889328 
	C1067.777954,217.462738 1068.658203,215.941254 1069.392700,214.352295 
	C1081.823486,187.459106 1094.306885,160.589630 1106.568726,133.619537 
	C1108.209961,130.009903 1110.233398,128.829285 1114.120850,128.882202 
	C1129.944946,129.097549 1145.775757,129.109970 1161.599487,128.881485 
	C1165.863159,128.819931 1166.914062,130.305191 1166.907471,134.334518 
	C1166.806763,195.643433 1166.801636,256.952637 1166.918701,318.261505 
	C1166.927124,322.624084 1165.635010,324.013367 1161.219238,323.931580 
	C1147.229492,323.672577 1133.229004,323.672058 1119.239258,323.929779 
	C1114.802002,324.011566 1113.544312,322.569366 1113.567261,318.233795 
	C1113.721680,289.079468 1113.644897,259.923950 1113.642944,230.768799 
	C1113.642822,228.854950 1113.642944,226.941116 1113.642944,225.027267 
	C1113.056885,224.870651 1112.470825,224.714050 1111.884766,224.557434 
	C1107.835571,233.461075 1103.786377,242.364700 1099.563721,251.602997 
z"/>
<path fill="#E8B1BA" opacity="1.000000" stroke="none" 
	d="
M581.012451,285.019897 
	C571.729736,264.569397 562.613525,244.455826 553.497314,224.342255 
	C553.042480,224.398712 552.587708,224.455154 552.132874,224.511612 
	C552.044922,226.349243 551.881470,228.186844 551.880371,230.024521 
	C551.863098,259.179199 551.759399,288.334656 551.968506,317.487854 
	C552.004395,322.492584 550.638306,324.084778 545.510437,323.955627 
	C531.525024,323.603424 517.523804,323.731995 503.531586,323.900574 
	C499.813599,323.945374 498.617920,322.668335 498.622559,319.001617 
	C498.700775,257.193787 498.698181,195.385803 498.632751,133.577942 
	C498.629150,130.195053 499.644714,128.882629 503.194366,128.913361 
	C519.852966,129.057632 536.514709,129.084930 553.172241,128.891953 
	C556.624451,128.851959 557.747070,130.682434 558.911194,133.236237 
	C570.993225,159.740463 583.117371,186.225479 595.246765,212.708054 
	C596.201355,214.792191 597.282166,216.818466 598.771240,219.809509 
	C600.215210,217.233475 601.348083,215.497330 602.208130,213.635208 
	C614.491577,187.040787 626.794067,160.454773 638.925781,133.791107 
	C640.510071,130.309021 642.356079,128.806885 646.380859,128.871475 
	C662.037048,129.122696 677.701904,129.116470 693.358521,128.880310 
	C697.828064,128.812881 699.457703,129.991196 699.447754,134.705750 
	C699.319092,195.847015 699.336792,256.988708 699.438232,318.130066 
	C699.445312,322.375702 698.253296,324.002502 693.767151,323.924408 
	C679.610657,323.677826 665.444885,323.698975 651.287537,323.919434 
	C647.162048,323.983673 645.868835,322.741180 645.890625,318.571198 
	C646.045532,288.917511 645.973206,259.262665 645.973206,229.608185 
	C645.973206,227.851959 645.973267,226.095718 645.973267,224.339493 
	C645.597290,224.237671 645.221313,224.135864 644.845337,224.034058 
	C644.127380,225.397400 643.337524,226.728149 642.702332,228.129013 
	C633.698792,247.987442 624.627686,267.816162 615.802429,287.753632 
	C614.006531,291.810760 611.746033,293.734650 607.144348,293.330872 
	C602.515259,292.924713 597.771362,292.805328 593.170166,293.346191 
	C586.621643,294.115936 582.658142,291.804230 581.012451,285.019897 
z"/>
<path fill="#E7B1BB" opacity="1.000000" stroke="none" 
	d="
M201.932861,231.000000 
	C201.933960,244.828979 202.138321,258.162689 201.827698,271.484406 
	C201.716644,276.247498 203.400681,277.350372 207.841629,277.319611 
	C232.832260,277.146423 257.824738,277.233612 282.816559,277.238068 
	C290.287079,277.239380 290.289734,277.248322 290.290253,284.936707 
	C290.291016,296.266327 290.189545,307.597321 290.343414,318.924805 
	C290.391937,322.499237 289.356354,323.913361 285.538544,323.904175 
	C241.386551,323.798035 197.234161,323.803070 153.082123,323.897919 
	C149.279022,323.906097 148.246307,322.421600 148.250198,318.861664 
	C148.317657,257.215240 148.332047,195.568649 148.219452,133.922333 
	C148.211975,129.835876 149.707443,128.862381 153.476089,128.904663 
	C167.969528,129.067291 182.467758,129.098663 196.959915,128.886887 
	C200.960419,128.828430 202.025574,130.147873 202.009277,134.032272 
	C201.874374,166.187729 201.932907,198.343979 201.932861,231.000000 
z"/>
<path fill="#E7B1BB" opacity="1.000000" stroke="none" 
	d="
M843.581909,450.731628 
	C844.443604,456.373871 842.103943,457.795990 837.139587,457.558838 
	C829.198486,457.179565 821.226074,457.457275 812.867371,457.457275 
	C812.735474,455.360931 812.546936,453.753540 812.546143,452.146088 
	C812.530090,419.169250 812.644592,386.191711 812.422913,353.216370 
	C812.388184,348.061432 814.184753,347.350189 818.934326,346.662842 
	C832.249939,344.735931 840.840332,349.822113 848.176331,360.870605 
	C856.529114,373.450409 866.699585,384.823975 876.097473,396.708008 
	C876.903381,397.727112 877.840332,398.642578 879.666809,400.651520 
	C879.828430,397.849762 880.005005,396.186035 880.007690,394.522003 
	C880.030457,380.365295 880.142822,366.206879 879.944641,352.052948 
	C879.888733,348.063507 881.300049,346.740143 885.155273,346.844360 
	C892.311768,347.037811 899.477478,346.954407 906.638367,346.885712 
	C909.403931,346.859192 911.037842,347.620087 911.031128,350.795654 
	C910.957336,385.602875 910.947083,420.410187 910.898987,455.217468 
	C910.898315,455.691315 910.633484,456.164734 910.270142,457.380829 
	C902.861267,457.380829 895.246765,457.582703 887.660034,457.214142 
	C886.103088,457.138489 884.389404,455.141235 883.189270,453.669769 
	C871.718933,439.606934 860.348206,425.462982 848.934570,411.353851 
	C847.718994,409.851196 846.412720,408.421906 845.148560,406.958588 
	C844.626404,407.066956 844.104248,407.175323 843.582092,407.283691 
	C843.582092,421.611969 843.582092,435.940216 843.581909,450.731628 
z"/>
<path fill="#E7B1BB" opacity="1.000000" stroke="none" 
	d="
M637.524292,390.398987 
	C636.554626,399.815277 632.889343,407.508698 626.205200,413.529572 
	C623.409424,416.047882 623.240051,418.108124 625.098022,421.225769 
	C630.975281,431.087830 636.623596,441.086578 642.330627,451.049530 
	C643.303040,452.747070 644.127991,454.529022 645.391724,456.995575 
	C643.106689,457.189758 641.529480,457.432404 639.951233,457.439667 
	C631.792358,457.477264 623.629272,457.306427 615.476074,457.523499 
	C612.052734,457.614624 610.022949,456.513916 608.359253,453.458893 
	C603.664917,444.838989 598.667053,436.383728 593.750061,427.886017 
	C591.571167,424.120422 587.083557,422.315460 583.252563,424.145630 
	C582.085999,424.702911 581.162720,426.968933 581.120911,428.479889 
	C580.904419,436.300110 580.778198,444.138489 581.091492,451.951630 
	C581.272461,456.464996 579.581665,457.684723 575.303772,457.539276 
	C567.031555,457.257996 558.743042,457.457123 550.016357,457.457123 
	C550.016357,455.090057 550.016357,453.447998 550.016357,451.805969 
	C550.016418,419.003357 550.113464,386.200134 549.912292,353.398743 
	C549.881958,348.462189 551.098267,346.645020 556.286682,346.796936 
	C572.750488,347.278992 589.316711,346.312317 605.676514,347.773529 
	C625.978455,349.586792 640.328247,369.581360 637.524292,390.398987 
M592.409058,396.769806 
	C597.359253,396.713257 602.563110,397.511322 605.328430,391.674469 
	C609.679749,382.490143 604.403137,373.992340 594.183899,373.910553 
	C580.959106,373.804718 580.925781,373.804840 580.968140,386.961761 
	C581.003540,397.960815 579.826599,396.669250 592.409058,396.769806 
z"/>
<path fill="#E6B0BB" opacity="1.000000" stroke="none" 
	d="
M401.901978,421.077454 
	C401.207642,413.720215 400.187256,406.775116 400.073639,399.815277 
	C399.812622,383.824127 400.074860,367.825012 399.933044,351.830872 
	C399.900513,348.164001 401.136902,346.749115 404.828552,346.843079 
	C411.822021,347.020996 418.828369,347.055450 425.819214,346.831879 
	C429.728729,346.706848 431.073303,348.117859 431.034973,352.031525 
	C430.880005,367.858765 430.789215,383.691833 431.072266,399.515594 
	C431.178589,405.458710 431.778931,411.527954 433.202820,417.280090 
	C435.214874,425.408234 441.573914,430.309052 448.781799,430.550598 
	C457.004730,430.826141 463.495239,426.747986 466.100098,418.286865 
	C467.836212,412.647583 468.687775,406.553223 468.819092,400.637787 
	C469.177582,384.483643 469.066254,368.314880 468.863342,352.155396 
	C468.810364,347.936798 470.266846,346.652039 474.341492,346.812775 
	C481.162354,347.081848 488.004913,347.021515 494.831329,346.838379 
	C498.405670,346.742462 499.957214,347.880005 499.893219,351.664062 
	C499.544037,372.313507 500.031738,393.002869 498.899170,413.605286 
	C497.962616,430.642151 490.503876,444.829895 474.528198,452.839081 
	C455.342865,462.457336 421.084076,461.087280 407.564972,435.843170 
	C405.158478,431.349579 403.819550,426.284271 401.901978,421.077454 
z"/>
<path fill="#E7B1BB" opacity="1.000000" stroke="none" 
	d="
M1167.985596,430.423584 
	C1182.643066,430.417175 1182.643066,430.417175 1182.643921,444.407928 
	C1182.644775,457.460419 1182.644775,457.458679 1169.495850,457.458405 
	C1149.680664,457.457977 1129.865356,457.460297 1110.050171,457.461456 
	C1108.098389,457.461578 1106.146484,457.461487 1103.860474,457.461487 
	C1103.727661,455.271088 1103.544800,453.655273 1103.543945,452.039398 
	C1103.528076,419.069519 1103.612793,386.099274 1103.443359,353.130249 
	C1103.419434,348.462433 1104.601929,346.740601 1109.547729,346.793854 
	C1131.525024,347.030396 1153.507202,346.991028 1175.485718,346.813660 
	C1179.797729,346.778870 1181.513916,348.015350 1181.246460,352.474548 
	C1180.927734,357.783813 1180.904297,363.144806 1181.256104,368.450012 
	C1181.560425,373.039307 1179.618286,374.100433 1175.427002,374.026215 
	C1163.608276,373.816925 1151.781006,374.091919 1139.962036,373.889252 
	C1135.818237,373.818207 1134.403809,375.262878 1134.518799,379.375732 
	C1134.812134,389.851257 1133.599854,388.561646 1143.480347,388.635162 
	C1151.972046,388.698364 1160.471313,388.848969 1168.954102,388.567566 
	C1173.213989,388.426270 1174.480103,390.020233 1174.248291,394.055420 
	C1173.971802,398.868469 1173.889648,403.732513 1174.266968,408.531769 
	C1174.629395,413.139374 1172.736816,414.146118 1168.506958,414.024933 
	C1158.857178,413.748474 1149.191406,414.060608 1139.537109,413.877502 
	C1135.968628,413.809875 1134.446411,414.799835 1134.531494,418.625183 
	C1134.845947,432.763916 1132.989380,430.170349 1146.008911,430.400238 
	C1153.166870,430.526581 1160.328857,430.423218 1167.985596,430.423584 
z"/>
<path fill="#E6B1BB" opacity="1.000000" stroke="none" 
	d="
M760.675171,373.951538 
	C748.386597,373.956848 736.559021,374.109741 724.738892,373.881073 
	C720.447754,373.798065 718.797668,375.072723 718.934326,379.538391 
	C719.253540,389.969849 718.186401,388.537933 728.107727,388.627502 
	C738.066284,388.717438 748.026245,388.647278 758.648865,388.647278 
	C758.648865,396.592194 758.800842,404.036407 758.449768,411.456757 
	C758.407593,412.349670 755.654053,413.794220 754.132263,413.826935 
	C744.144287,414.041718 734.145935,414.089417 724.158447,413.863892 
	C720.286865,413.776428 718.852234,414.914795 718.946533,418.927887 
	C719.269958,432.701508 717.562866,430.223846 730.247375,430.391327 
	C740.904358,430.532074 751.566284,430.534668 762.222412,430.366608 
	C765.868103,430.309143 767.299133,431.463501 767.136841,435.235840 
	C766.879456,441.220581 766.983093,447.225281 767.083008,453.219055 
	C767.130615,456.077087 766.239258,457.491882 763.106750,457.481415 
	C738.958496,457.400604 714.809937,457.423035 690.661438,457.393585 
	C690.019470,457.392822 689.377747,457.167450 688.269653,456.959229 
	C688.184509,455.169525 688.028137,453.404846 688.027283,451.640106 
	C688.011841,418.830963 688.127014,386.021057 687.898499,353.213501 
	C687.862366,348.025574 689.548523,346.744324 694.468750,346.794800 
	C716.283752,347.018524 738.103271,347.002502 759.918640,346.797272 
	C764.549438,346.753693 766.112366,348.236542 765.826355,352.813385 
	C765.484253,358.287994 765.601440,363.805267 765.795044,369.294342 
	C765.917603,372.769318 764.560852,374.265106 760.675171,373.951538 
z"/>
<path fill="#E6B0BB" opacity="1.000000" stroke="none" 
	d="
M351.861908,438.053772 
	C354.003784,444.380432 356.042084,450.327118 358.318115,456.967407 
	C356.172913,457.166473 354.606293,457.427612 353.038086,457.437531 
	C345.879395,457.482819 338.709045,457.218964 331.565826,457.554565 
	C327.781647,457.732422 326.197723,456.175842 325.319672,452.841339 
	C324.176941,448.501801 322.702301,444.250549 321.509918,439.922882 
	C320.732330,437.100830 319.190704,435.902893 316.144135,435.986664 
	C309.323334,436.174133 302.478882,435.797638 295.678131,436.211212 
	C293.944214,436.316620 291.515717,438.172760 290.829559,439.818085 
	C288.918457,444.400787 287.882446,449.340607 286.212524,454.036865 
	C285.750183,455.337097 284.305176,457.212799 283.269440,457.240021 
	C273.821808,457.488037 264.364990,457.385681 254.230453,457.385681 
	C254.627380,455.400055 254.745178,453.963959 255.202698,452.645752 
	C266.871948,419.025360 278.631958,385.436218 290.194519,351.779266 
	C291.423157,348.202911 293.066986,346.647186 296.921997,346.822052 
	C302.903229,347.093445 308.919373,347.137146 314.894745,346.807281 
	C318.928436,346.584656 320.778839,348.088257 322.064056,351.863892 
	C331.495728,379.571808 341.126984,407.211761 350.700226,434.871460 
	C351.026642,435.814667 351.404480,436.740082 351.861908,438.053772 
M309.786865,395.628052 
	C308.724030,392.324707 307.661194,389.021362 306.598358,385.718018 
	C306.144897,385.745483 305.691467,385.772949 305.238007,385.800415 
	C302.424835,395.335571 299.611694,404.870728 296.532745,415.306824 
	C302.100861,415.306824 306.387329,415.217987 310.668182,415.334778 
	C314.136536,415.429352 315.129730,414.035797 314.109955,410.752838 
	C312.634338,406.002319 311.339661,401.195587 309.786865,395.628052 
z"/>
<path fill="#E6B0BB" opacity="1.000000" stroke="none" 
	d="
M958.214966,397.288025 
	C963.457886,348.031372 1016.906860,335.046143 1046.645020,355.796936 
	C1051.160278,358.947510 1054.531372,363.765259 1058.325562,367.908966 
	C1060.016357,369.755463 1059.591797,371.364716 1057.467407,372.831940 
	C1051.304321,377.088409 1045.297363,381.574188 1039.063965,385.721924 
	C1038.173340,386.314606 1035.583862,386.046295 1035.106079,385.312927 
	C1028.318970,374.895081 1018.521545,372.224091 1007.238281,375.096497 
	C996.613403,377.801300 992.068359,386.259155 990.008423,396.324066 
	C987.005554,410.996033 994.901367,425.774109 1007.850891,429.769135 
	C1017.208069,432.655884 1027.980469,429.016266 1033.330933,420.841248 
	C1035.211670,417.967804 1036.851807,417.497253 1039.770508,419.364929 
	C1045.515625,423.040985 1051.368164,426.571503 1057.347168,429.850677 
	C1060.714844,431.697723 1060.817139,433.594757 1058.947510,436.618164 
	C1052.599487,446.883789 1042.898193,452.443665 1031.788818,455.664612 
	C1002.521484,464.150085 976.503296,452.414337 963.325439,424.935455 
	C959.222778,416.380310 957.630249,407.239960 958.214966,397.288025 
z"/>
<path fill="#E6B1BB" opacity="1.000000" stroke="none" 
	d="
M148.155640,346.889587 
	C154.462631,346.890961 160.302872,347.140533 166.110947,346.815338 
	C170.724106,346.557068 171.677460,348.598389 171.653061,352.730042 
	C171.513504,376.367615 171.579300,400.006470 171.593170,423.644867 
	C171.597137,430.403473 171.624313,430.412933 178.537811,430.418243 
	C191.189346,430.427948 203.842331,430.532806 216.491501,430.361298 
	C220.224121,430.310730 221.464005,431.594971 221.313339,435.282562 
	C221.062119,441.431854 221.189835,447.598694 221.245453,453.757385 
	C221.267410,456.189362 220.428970,457.455505 217.795853,457.451721 
	C192.342194,457.415161 166.888474,457.429810 140.817505,457.429810 
	C140.712662,455.217133 140.543427,453.298645 140.542496,451.380096 
	C140.526825,418.918915 140.529373,386.457733 140.534821,353.996552 
	C140.535995,346.957886 140.548447,346.957886 148.155640,346.889587 
z"/>
<path fill="#E4B0BB" opacity="1.000000" stroke="none" 
	d="
M178.368530,505.248260 
	C181.523560,498.405518 184.644028,491.957153 187.467697,485.381348 
	C188.772659,482.342346 190.605179,481.087585 193.946915,481.273041 
	C198.599152,481.531311 203.298401,481.098633 207.927551,481.516022 
	C209.222229,481.632782 211.375641,483.689972 211.387054,484.873932 
	C211.596100,506.536469 211.594925,528.202148 211.387756,549.864807 
	C211.376205,551.072449 209.288696,553.186340 208.009537,553.315552 
	C191.264618,555.007446 191.257568,554.936646 191.258575,538.160156 
	C191.258911,532.773926 191.258621,527.387695 191.258621,522.001404 
	C190.704330,521.875488 190.150040,521.749512 189.595749,521.623596 
	C187.335800,526.479980 184.600983,531.180786 182.945297,536.235107 
	C181.179245,541.626404 177.743088,543.362610 172.780136,542.258545 
	C170.726120,541.801697 168.252060,540.287537 167.266266,538.527588 
	C164.327072,533.280090 162.030533,527.672668 159.482971,522.205811 
	C159.013199,522.301086 158.543411,522.396362 158.073639,522.491638 
	C157.921478,524.191650 157.651108,525.890808 157.637741,527.591919 
	C157.581512,534.757507 157.514023,541.925232 157.635025,549.089111 
	C157.687943,552.222900 156.677078,553.679993 153.329391,553.513611 
	C149.173233,553.307129 144.997025,553.375061 140.833847,553.487000 
	C138.271210,553.555908 137.272034,552.529053 137.278076,549.969177 
	C137.329346,528.304626 137.256607,506.639282 137.466385,484.976562 
	C137.478134,483.762726 139.632141,482.549255 140.840958,481.389740 
	C141.017960,481.219940 141.485870,481.358124 141.818878,481.345612 
	C159.235580,480.691437 159.217484,480.699585 166.469406,496.608856 
	C168.856033,501.844696 171.362900,507.025726 174.335388,513.337158 
	C176.025757,509.959778 177.119171,507.775146 178.368530,505.248260 
z"/>
<path fill="#E6B0BB" opacity="1.000000" stroke="none" 
	d="
M777.072632,481.585999 
	C782.960938,481.435547 788.456482,481.478333 793.946838,481.328766 
	C796.939819,481.247192 798.078613,482.462616 798.068848,485.451538 
	C797.999268,506.765411 797.996216,528.079651 798.057434,549.393555 
	C798.065979,552.366333 796.983765,553.614197 793.953186,553.494507 
	C789.963013,553.336914 785.953552,553.296570 781.968079,553.505432 
	C778.578674,553.683105 777.710205,552.169983 777.772766,549.057678 
	C777.923340,541.567444 777.835205,534.072083 777.803040,526.578918 
	C777.796326,525.008423 777.616333,523.438721 776.366882,521.525757 
	C775.146667,523.910217 773.867371,526.266785 772.721497,528.686523 
	C771.368958,531.542725 769.910461,534.378357 768.899414,537.359192 
	C767.564636,541.294861 765.110596,542.547791 761.008301,542.511230 
	C757.016418,542.475586 754.521667,541.492493 752.988464,537.530579 
	C750.933777,532.220764 748.287354,527.139893 745.894958,521.960754 
	C745.424255,522.070312 744.953613,522.179932 744.482971,522.289490 
	C744.347229,524.512634 744.113037,526.734863 744.094116,528.959045 
	C744.035889,535.785767 744.229309,542.621033 743.911072,549.433716 
	C743.846680,550.810791 742.047119,553.169006 740.912109,553.253357 
	C735.480347,553.657288 730.002014,553.434509 724.196228,553.434509 
	C724.196228,529.288452 724.196228,505.736694 724.196228,481.440582 
	C731.009583,481.440582 737.631042,481.213196 744.211670,481.630798 
	C745.541016,481.715210 747.116638,484.048920 747.894470,485.673248 
	C752.121094,494.499542 756.133179,503.428558 760.852661,513.701233 
	C762.872070,509.507324 764.311523,506.435242 765.821594,503.398285 
	C769.422546,496.156403 773.056885,488.931061 777.072632,481.585999 
z"/>
<path fill="#E8B1BA" opacity="1.000000" stroke="none" 
	d="
M875.588562,245.001053 
	C875.583923,252.663971 875.479431,259.829041 875.620361,266.989319 
	C875.682983,270.172485 874.598328,271.378113 871.301819,271.365417 
	C845.648193,271.266388 819.993835,271.277100 794.340088,271.351807 
	C791.246277,271.360809 789.823853,270.527435 789.861633,267.132751 
	C790.002686,254.473923 789.994080,241.811752 789.860413,229.152725 
	C789.826050,225.898972 790.964172,224.808792 794.199341,224.820068 
	C819.853027,224.909470 845.507507,224.928421 871.160828,224.798965 
	C874.798096,224.780624 875.750183,226.192749 875.628479,229.510391 
	C875.445435,234.501129 875.585754,239.503708 875.588562,245.001053 
z"/>
<path fill="#E6B0BB" opacity="1.000000" stroke="none" 
	d="
M1067.457520,482.375671 
	C1085.130737,486.842041 1095.210693,501.152466 1093.831299,519.387024 
	C1092.219849,540.687683 1079.752563,552.757874 1058.385376,553.374695 
	C1049.111694,553.642395 1039.823608,553.419617 1030.219849,553.419617 
	C1030.067139,551.423950 1029.861328,549.976807 1029.859863,548.529358 
	C1029.838989,527.899414 1029.946289,507.268616 1029.761719,486.640320 
	C1029.724365,482.457825 1031.071533,481.103546 1035.179565,481.290710 
	C1045.799072,481.774536 1056.432617,481.947144 1067.457520,482.375671 
M1050.019653,512.521484 
	C1050.025024,518.838318 1049.882812,525.161438 1050.151611,531.467041 
	C1050.210327,532.846069 1051.577515,535.180847 1052.610352,535.340576 
	C1058.802124,536.297913 1064.794189,535.296875 1068.858765,530.068054 
	C1073.863525,523.629944 1074.254883,516.193909 1071.334473,508.809174 
	C1068.930420,502.730469 1064.127930,499.495544 1057.437378,499.231079 
	C1050.280762,498.948273 1050.048096,499.110718 1050.023193,506.047211 
	C1050.016724,507.875732 1050.020752,509.704346 1050.019653,512.521484 
z"/>
<path fill="#E6B0BB" opacity="1.000000" stroke="none" 
	d="
M375.796875,542.270264 
	C374.130310,539.350403 372.945801,536.485535 371.020905,534.261353 
	C369.826355,532.881226 367.476227,531.809082 365.708801,531.896362 
	C364.765289,531.942932 363.343353,534.692566 363.207611,536.311829 
	C362.847351,540.611145 362.983612,544.961243 363.088654,549.287109 
	C363.158600,552.166809 362.195618,553.588928 359.074371,553.495178 
	C353.947540,553.341125 348.812683,553.453430 343.228058,553.453430 
	C343.075653,551.364807 342.860016,549.772644 342.858307,548.180237 
	C342.836334,527.702026 342.936462,507.223053 342.767792,486.746246 
	C342.734436,482.696594 343.844177,481.138580 348.078735,481.266296 
	C357.061157,481.537170 366.057098,481.365631 375.047516,481.360962 
	C386.076782,481.355255 393.938171,486.569214 398.115265,496.543732 
	C402.243042,506.400421 400.843536,515.924072 393.486053,523.912720 
	C391.043732,526.564575 391.034576,528.376404 392.758759,531.221069 
	C396.949768,538.135559 400.856812,545.222168 405.522278,553.363403 
	C397.377563,553.363403 390.454102,553.592163 383.570465,553.170349 
	C382.194366,553.085999 380.799072,550.638184 379.718719,549.069458 
	C378.308319,547.021423 377.202820,544.763489 375.796875,542.270264 
M366.023041,513.654480 
	C368.020691,513.679626 370.018250,513.715881 372.015961,513.727539 
	C375.472260,513.747681 378.393555,512.842834 379.107300,508.931366 
	C379.767731,505.312042 379.754456,501.073669 375.768127,500.025299 
	C372.009186,499.036682 367.585571,499.446899 363.737549,500.393372 
	C361.762024,500.879211 363.073883,511.308044 366.023041,513.654480 
z"/>
<path fill="#E6B0BB" opacity="1.000000" stroke="none" 
	d="
M486.382019,520.324036 
	C479.624390,525.592468 481.749634,530.632996 485.578217,536.210144 
	C489.031036,541.239990 491.750458,546.773315 495.487152,553.295532 
	C487.373749,553.295532 480.353119,553.423523 473.347565,553.156372 
	C472.307892,553.116638 471.104675,551.354126 470.378876,550.147095 
	C467.378296,545.157349 464.776062,539.908020 461.498260,535.116028 
	C460.339539,533.421997 457.670502,532.761047 455.691040,531.628479 
	C454.819122,533.518066 453.390259,535.351379 453.192444,537.309082 
	C452.792664,541.265015 452.973724,545.290894 453.083618,549.283325 
	C453.162720,552.157104 452.211029,553.592896 449.081940,553.498657 
	C443.954865,553.344116 438.819794,553.456787 433.233856,553.456787 
	C433.079041,551.369141 432.860016,549.777832 432.858276,548.186279 
	C432.835846,527.708496 432.935333,507.230011 432.767731,486.753601 
	C432.734650,482.714417 433.822388,481.129486 438.069397,481.267334 
	C446.551239,481.542725 455.075500,481.787750 463.533722,481.263153 
	C484.214172,479.980469 496.868988,502.331543 486.382019,520.324036 
M466.160675,499.949768 
	C462.733917,499.708740 459.309235,499.372009 455.878845,499.296875 
	C455.066040,499.279053 453.551483,500.096161 453.519714,500.602081 
	C453.283691,504.357330 452.765930,508.272308 453.638092,511.816864 
	C453.917938,512.954102 458.198700,513.838928 460.494232,513.560974 
	C463.305389,513.220581 467.029510,512.278015 468.418945,510.260010 
	C470.469421,507.282043 470.050507,503.266998 466.160675,499.949768 
z"/>
<path fill="#E5B0BB" opacity="1.000000" stroke="none" 
	d="
M987.377563,489.624634 
	C998.089966,499.853912 1002.316467,511.970612 998.931274,526.085388 
	C995.483276,540.461548 986.094849,549.860291 971.760620,552.972839 
	C957.240601,556.125732 944.185913,552.436584 934.825256,540.157043 
	C925.398865,527.791077 923.964417,514.147217 931.179077,500.341583 
	C938.230286,486.848938 950.031494,480.767914 965.187256,481.086517 
	C973.481018,481.260864 980.771912,484.065948 987.377563,489.624634 
M973.765503,531.296631 
	C979.350220,525.593018 980.218567,518.604187 978.326843,511.384186 
	C976.669495,505.058990 972.515503,500.524719 965.690552,499.421906 
	C959.264099,498.383514 954.159668,500.981689 950.834778,506.382263 
	C946.919250,512.742249 946.564636,519.587097 949.732910,526.423279 
	C954.302490,536.283325 964.685608,538.616699 973.765503,531.296631 
z"/>
<path fill="#E5B0BB" opacity="1.000000" stroke="none" 
	d="
M239.908844,515.191284 
	C241.455826,499.793732 248.975372,488.825928 262.954071,483.572021 
	C276.844727,478.351196 290.203796,480.277405 301.521881,490.701569 
	C312.133087,500.474670 315.807922,516.463867 310.804504,530.189636 
	C305.803497,543.908752 293.301178,553.049194 278.526825,553.787964 
	C256.212402,554.903748 239.890396,538.800354 239.908844,515.191284 
M276.464844,499.274170 
	C265.480682,498.405762 256.646454,512.847046 262.599792,526.175293 
	C264.986053,531.517639 268.943665,535.106689 275.024536,535.607727 
	C283.781342,536.329346 291.023499,529.723450 291.947662,520.328003 
	C293.093140,508.682373 287.506714,500.669708 276.464844,499.274170 
z"/>
<path fill="#E5B0BB" opacity="1.000000" stroke="none" 
	d="
M873.848206,481.976624 
	C889.883606,486.961121 898.979004,497.704468 900.698975,513.768372 
	C902.380493,529.473206 895.819214,541.687805 881.942810,549.512085 
	C868.558899,557.058655 851.579285,555.026733 840.063538,544.815369 
	C828.574097,534.627319 824.683899,517.447815 830.640198,503.200409 
	C836.520142,489.135590 850.547424,480.342743 866.000366,481.099030 
	C868.490540,481.220917 870.968384,481.593445 873.848206,481.976624 
M850.051636,525.036682 
	C852.572388,530.913330 856.490112,535.052307 863.256226,535.640259 
	C869.370483,536.171570 874.017334,533.500244 877.038208,528.464172 
	C881.291138,521.373962 881.501648,513.920593 877.210815,506.725739 
	C874.309143,501.860107 869.963867,499.146790 864.052979,499.260010 
	C858.324036,499.369781 854.283020,502.222900 851.515930,506.936218 
	C848.314514,512.389221 847.928772,518.242371 850.051636,525.036682 
z"/>
<path fill="#E4AFBB" opacity="1.000000" stroke="none" 
	d="
M602.998230,554.352051 
	C593.719727,552.254150 584.844727,550.262451 576.036865,548.008728 
	C572.675598,547.148682 571.565796,545.155701 573.569702,541.667175 
	C576.036926,537.372375 578.000244,532.788086 580.233826,528.221558 
	C585.880859,530.485657 590.981567,532.859619 596.302429,534.533569 
	C599.224609,535.452942 602.517334,535.350952 605.644043,535.360229 
	C606.489014,535.362732 607.859131,534.202026 608.035461,533.372620 
	C608.205872,532.571838 607.380310,531.119080 606.580750,530.640991 
	C604.748047,529.545044 602.701660,528.763977 600.674438,528.045776 
	C597.381531,526.879211 593.993347,525.976990 590.717773,524.767029 
	C579.106506,520.478027 574.641724,514.207581 575.242188,503.228577 
	C575.827271,492.532593 582.275879,484.567535 593.075928,481.881378 
	C605.040100,478.905701 616.162415,482.111542 626.803711,487.442688 
	C627.652527,487.867920 627.985596,489.706604 628.159363,490.944397 
	C628.255798,491.630981 627.560181,492.452942 627.161255,493.180786 
	C625.087097,496.965179 623.828003,502.355621 620.640625,504.000793 
	C618.126953,505.298279 613.270935,501.834747 609.379089,500.762054 
	C606.681824,500.018555 603.861816,499.450500 601.083191,499.385773 
	C599.698120,499.353516 598.282715,500.627014 596.881042,501.309814 
	C597.831543,502.681671 598.486877,504.760193 599.784119,505.302063 
	C605.147156,507.542358 610.781189,509.128510 616.169434,511.315399 
	C621.785828,513.594971 627.003967,516.547607 629.429565,522.664734 
	C635.190002,537.192383 626.418579,551.790833 610.876221,553.527466 
	C608.393860,553.804871 605.911133,554.078430 602.998230,554.352051 
z"/>
<path fill="#E4AFBB" opacity="1.000000" stroke="none" 
	d="
M1174.183350,506.265594 
	C1173.642456,507.341766 1173.304932,508.109070 1172.865112,508.812378 
	C1164.942261,521.482483 1159.661743,534.838074 1161.971436,550.208618 
	C1162.088745,550.989502 1161.787964,551.833069 1161.581665,553.416931 
	C1155.801147,553.416931 1150.027832,553.519958 1144.265991,553.307495 
	C1143.386841,553.275085 1142.380981,551.895325 1141.777100,550.924988 
	C1141.395752,550.312317 1141.532593,549.286499 1141.641357,548.473328 
	C1143.473755,534.782532 1139.236816,522.760498 1132.352295,511.105804 
	C1126.963379,501.982910 1122.659302,492.219147 1117.266968,481.539307 
	C1124.991699,481.539307 1131.703613,481.407745 1138.397705,481.691406 
	C1139.324829,481.730682 1140.442993,483.701477 1140.998291,484.983582 
	C1143.841187,491.547516 1146.510864,498.186218 1149.284668,504.780457 
	C1149.890381,506.220428 1150.674927,507.585236 1152.057129,510.339722 
	C1155.683472,501.930084 1159.141357,494.987122 1161.655518,487.717804 
	C1163.446045,482.540497 1166.285400,480.775452 1171.547485,481.245331 
	C1176.252075,481.665436 1181.023926,481.333649 1187.056641,481.333649 
	C1182.373413,490.390015 1178.356323,498.158478 1174.183350,506.265594 
z"/>
<path fill="#E5B0BB" opacity="1.000000" stroke="none" 
	d="
M404.583618,323.828979 
	C392.963776,323.843750 381.802795,323.723541 370.647186,323.915588 
	C366.894135,323.980164 365.729553,322.611145 365.768433,318.979095 
	C365.914612,305.323486 365.925323,291.664429 365.773895,278.009003 
	C365.732666,274.288666 367.072449,273.078522 370.730103,273.136963 
	C381.553070,273.310059 392.382965,273.323669 403.205170,273.126068 
	C407.013580,273.056549 408.093201,274.561768 408.060547,278.124847 
	C407.935486,291.780853 408.104828,305.440277 407.876648,319.093628 
	C407.850098,320.683075 406.032074,322.242584 404.583618,323.828979 
z"/>
<path fill="#E5B0BB" opacity="1.000000" stroke="none" 
	d="
M539.516357,481.368530 
	C541.000977,482.737488 542.917664,484.083374 542.929749,485.446106 
	C543.118286,506.745575 543.033325,528.047241 543.092346,549.348206 
	C543.100464,552.280701 542.049255,553.372681 539.021118,553.525085 
	C522.831177,554.339600 522.836670,554.412842 522.838745,538.151550 
	C522.841003,521.010742 522.947205,503.868774 522.760193,486.730011 
	C522.715881,482.666901 523.856995,480.942322 528.083862,481.282166 
	C531.721802,481.574646 535.401306,481.349548 539.516357,481.368530 
z"/>
<path fill="#E3AFBB" opacity="1.000000" stroke="none" 
	d="
M661.707520,516.328491 
	C670.477966,516.257996 678.811584,516.326599 687.141479,516.184326 
	C690.517822,516.126709 692.033508,517.381104 691.976990,520.837097 
	C691.709534,537.201843 694.042908,533.799805 679.566162,534.129395 
	C673.572388,534.265747 667.571167,534.095581 661.573792,534.028687 
	C661.111755,534.023560 660.652893,533.731445 658.930237,533.137634 
	C659.688782,527.703552 660.479004,522.043213 661.707520,516.328491 
z"/>
<path fill="#3664DA" opacity="1.000000" stroke="none" 
	d="
M591.938599,396.769989 
	C579.826599,396.669250 581.003540,397.960815 580.968140,386.961761 
	C580.925781,373.804840 580.959106,373.804718 594.183899,373.910553 
	C604.403137,373.992340 609.679749,382.490143 605.328430,391.674469 
	C602.563110,397.511322 597.359253,396.713257 591.938599,396.769989 
z"/>
<path fill="#3C67D9" opacity="1.000000" stroke="none" 
	d="
M309.877319,396.020447 
	C311.339661,401.195587 312.634338,406.002319 314.109955,410.752838 
	C315.129730,414.035797 314.136536,415.429352 310.668182,415.334778 
	C306.387329,415.217987 302.100861,415.306824 296.532745,415.306824 
	C299.611694,404.870728 302.424835,395.335571 305.238007,385.800415 
	C305.691467,385.772949 306.144897,385.745483 306.598358,385.718018 
	C307.661194,389.021362 308.724030,392.324707 309.877319,396.020447 
z"/>
<path fill="#3664DA" opacity="1.000000" stroke="none" 
	d="
M1050.019775,512.027222 
	C1050.020752,509.704346 1050.016724,507.875732 1050.023193,506.047211 
	C1050.048096,499.110718 1050.280762,498.948273 1057.437378,499.231079 
	C1064.127930,499.495544 1068.930420,502.730469 1071.334473,508.809174 
	C1074.254883,516.193909 1073.863525,523.629944 1068.858765,530.068054 
	C1064.794189,535.296875 1058.802124,536.297913 1052.610352,535.340576 
	C1051.577515,535.180847 1050.210327,532.846069 1050.151611,531.467041 
	C1049.882812,525.161438 1050.025024,518.838318 1050.019775,512.027222 
z"/>
<path fill="#3C67D9" opacity="1.000000" stroke="none" 
	d="
M365.592407,513.579834 
	C363.073883,511.308044 361.762024,500.879211 363.737549,500.393372 
	C367.585571,499.446899 372.009186,499.036682 375.768127,500.025299 
	C379.754456,501.073669 379.767731,505.312042 379.107300,508.931366 
	C378.393555,512.842834 375.472260,513.747681 372.015961,513.727539 
	C370.018250,513.715881 368.020691,513.679626 365.592407,513.579834 
z"/>
<path fill="#3C67D9" opacity="1.000000" stroke="none" 
	d="
M466.482239,500.183594 
	C470.050507,503.266998 470.469421,507.282043 468.418945,510.260010 
	C467.029510,512.278015 463.305389,513.220581 460.494232,513.560974 
	C458.198700,513.838928 453.917938,512.954102 453.638092,511.816864 
	C452.765930,508.272308 453.283691,504.357330 453.519714,500.602081 
	C453.551483,500.096161 455.066040,499.279053 455.878845,499.296875 
	C459.309235,499.372009 462.733917,499.708740 466.482239,500.183594 
z"/>
<path fill="#3362DB" opacity="1.000000" stroke="none" 
	d="
M973.495361,531.543213 
	C964.685608,538.616699 954.302490,536.283325 949.732910,526.423279 
	C946.564636,519.587097 946.919250,512.742249 950.834778,506.382263 
	C954.159668,500.981689 959.264099,498.383514 965.690552,499.421906 
	C972.515503,500.524719 976.669495,505.058990 978.326843,511.384186 
	C980.218567,518.604187 979.350220,525.593018 973.495361,531.543213 
z"/>
<path fill="#3362DB" opacity="1.000000" stroke="none" 
	d="
M276.870544,499.279480 
	C287.506714,500.669708 293.093140,508.682373 291.947662,520.328003 
	C291.023499,529.723450 283.781342,536.329346 275.024536,535.607727 
	C268.943665,535.106689 264.986053,531.517639 262.599792,526.175293 
	C256.646454,512.847046 265.480682,498.405762 276.870544,499.279480 
z"/>
<path fill="#3362DB" opacity="1.000000" stroke="none" 
	d="
M849.929382,524.647522 
	C847.928772,518.242371 848.314514,512.389221 851.515930,506.936218 
	C854.283020,502.222900 858.324036,499.369781 864.052979,499.260010 
	C869.963867,499.146790 874.309143,501.860107 877.210815,506.725739 
	C881.501648,513.920593 881.291138,521.373962 877.038208,528.464172 
	C874.017334,533.500244 869.370483,536.171570 863.256226,535.640259 
	C856.490112,535.052307 852.572388,530.913330 849.929382,524.647522 
z"/>
</svg>